<svg width="20" height="20" viewBox="0 0 20 20" fill="none" xmlns="http://www.w3.org/2000/svg">
<path d="M20 14V3.5C20 1.56364 18.4364 0 16.5 0H3.5C1.56364 0 0 1.56364 0 3.5V16.5C0 18.4364 1.56364 20 3.5 20H14L20 14ZM3.5 18C2.67273 18 2 17.3273 2 16.5V3.5C2 2.67273 2.67273 2 3.5 2H16.5C17.3273 2 18 2.67273 18 3.5V13H16.5C14.5636 13 13 14.5636 13 16.5V18H3.5ZM7.76364 7.78182C7.5 6.85454 6.53636 6.30909 5.60909 6.57273C4.68182 6.83636 4.13636 7.8 4.4 8.73636C4.47273 8.99091 4.6 9.21818 4.76364 9.40909L7.8 8.55454C7.84545 8.3 7.83636 8.03636 7.76364 7.78182ZM14.0182 6.01818C13.7636 5.09091 12.7909 4.54545 11.8636 4.80909C10.9364 5.07273 10.3909 6.03636 10.6545 6.97273C10.7273 7.22727 10.8545 7.45454 11.0182 7.64545L14.0545 6.79091C14.1 6.53636 14.0909 6.27273 14.0182 6.01818ZM14.9091 9.14545L5.27273 11.8636C6.57273 13.5818 8.82727 14.4182 11.0182 13.8C13.2091 13.1818 14.6909 11.2818 14.9091 9.14545Z" fill="#FF9100"/>
</svg>
