<svg width="22" height="22" viewBox="0 0 22 22" fill="none" xmlns="http://www.w3.org/2000/svg">
<path d="M2.44134 19.5307H4.18079L16.1128 7.59866L14.3734 5.85921L2.44134 17.7912V19.5307ZM0 21.972V16.7842L16.1128 0.701884C16.357 0.478095 16.6265 0.305167 16.9215 0.1831C17.2165 0.0610334 17.5268 0 17.8523 0C18.1778 0 18.4931 0.0610334 18.7983 0.1831C19.1035 0.305167 19.3679 0.488267 19.5917 0.732401L21.2701 2.44134C21.5143 2.66513 21.6923 2.9296 21.8042 3.23477C21.9161 3.53994 21.972 3.8451 21.972 4.15027C21.972 4.47578 21.9161 4.78604 21.8042 5.08103C21.6923 5.37603 21.5143 5.64559 21.2701 5.88972L5.18784 21.972H0ZM15.2278 6.74419L14.3734 5.85921L16.1128 7.59866L15.2278 6.74419Z" fill="#FF6D00"/>
</svg>
